<?xml version="1.0" encoding="UTF-8" standalone="no"?>
<svg
   xmlns:dc="http://purl.org/dc/elements/1.1/"
   xmlns:cc="http://creativecommons.org/ns#"
   xmlns:rdf="http://www.w3.org/1999/02/22-rdf-syntax-ns#"
   xmlns:svg="http://www.w3.org/2000/svg"
   xmlns="http://www.w3.org/2000/svg"
   xmlns:sodipodi="http://sodipodi.sourceforge.net/DTD/sodipodi-0.dtd"
   xmlns:inkscape="http://www.inkscape.org/namespaces/inkscape"
   viewBox="0 0 48 16"
   version="1.1"
   id="svg87"
   sodipodi:docname="头部标题白色波浪图标doodle-squiggle.svg"
   inkscape:version="1.0.2-2 (e86c870879, 2021-01-15)">
  <metadata
     id="metadata93">
    <rdf:RDF>
      <cc:Work
         rdf:about="">
        <dc:format>image/svg+xml</dc:format>
        <dc:type
           rdf:resource="http://purl.org/dc/dcmitype/StillImage" />
        <dc:title></dc:title>
      </cc:Work>
    </rdf:RDF>
  </metadata>
  <defs
     id="defs91" />
  <sodipodi:namedview
     pagecolor="#ffffff"
     bordercolor="#666666"
     borderopacity="1"
     objecttolerance="10"
     gridtolerance="10"
     guidetolerance="10"
     inkscape:pageopacity="0"
     inkscape:pageshadow="2"
     inkscape:window-width="1920"
     inkscape:window-height="1001"
     id="namedview89"
     showgrid="false"
     inkscape:zoom="25.291667"
     inkscape:cx="24"
     inkscape:cy="8"
     inkscape:window-x="-9"
     inkscape:window-y="-9"
     inkscape:window-maximized="1"
     inkscape:current-layer="svg87" />
  <path
     d="M47.9 10.6c.2-2.2-1.5-4.2-3.8-4.5a7 7 0 0 0-3.8 0c-1.8.3-3.9 1.9-6 1.7-3.2-.6-2.2-6.4-6.4-5.5-2.3.4-2.7 3.6-3.9 4.9L19.7 1c-.5-.8-2.3-1.3-2.8 0-.6 1.5-4.6 12.4-6.2 11.6-.6-.2-.5-3-.8-3.5-.2-1-1-2.2-1.9-2.7-.6-.5-1.9-.1-2.1.6-.9 2.2-2.7 4.1-5 4.9-1.9 1-.4 3.7 1.5 2.7 2.1-.9 3.6-2.2 4.7-3.9.2 1.1.3 2.5.8 3.5.7 1.4 2.1 2 3.5 1.7 2-.3 2.8-2.2 3.7-3.7 1.2-2.5 2.2-5.1 3.4-7.6l3.6 5.5c.4.6.9 1 1.6.8 2.2-.6 2.3-2.5 3.6-4.1.1-.2.4-.9.6-1 1-.3.9 1 1.3 1.6.3 1 1 1.9 1.7 2.6 1.9 1.2 4.4 1.3 6.6.5 1.2-.4 7.8-2.9 7.3.3-.3 1.9 2.9 1.9 3.1-.2z"
     id="path85"
     style="fill:#ffffff" />
</svg>
